HIERARCHY
ROOT Hips
{
	OFFSET 0.000000 0.000000 0.000000
	CHANNELS 6 Xposition Yposition Zposition Zrotation Yrotation Xrotation 
	JOINT LowerBack
	{
		OFFSET 0.000000 0.000000 0.000000
		CHANNELS 3 Zrotation Yrotation Xrotation
		JOINT Spine
		{
			OFFSET 0.028270 2.035590 -0.193380
			CHANNELS 3 Zrotation Yrotation Xrotation
			JOINT Spine1
			{
				OFFSET 0.056720 2.048850 -0.042750
				CHANNELS 3 Zrotation Yrotation Xrotation
				JOINT Neck
				{
					OFFSET 0.000000 0.000000 0.000000
					CHANNELS 3 Zrotation Yrotation Xrotation
					JOINT Neck1
					{
						OFFSET -0.054170 1.746240 0.172020
						CHANNELS 3 Zrotation Yrotation Xrotation
						JOINT Head
						{
							OFFSET 0.104070 1.761360 -0.123970
							CHANNELS 3 Zrotation Yrotation Xrotation
							End Site
							{
								OFFSET 0.000000 0.000000 0.000000
							}
						}
					}
				}
				JOINT LeftShoulder
				{
					OFFSET 0.000000 0.000000 0.000000
					CHANNELS 3 Zrotation Yrotation Xrotation
					JOINT LeftArm
					{
						OFFSET 3.362410 1.200890 -0.311210
						CHANNELS 3 Zrotation Yrotation Xrotation
						JOINT LeftForeArm
						{
							OFFSET 4.983000 -0.000000 -0.000000
							CHANNELS 3 Zrotation Yrotation Xrotation
							JOINT LeftHand
							{
								OFFSET 3.483560 -0.000000 -0.000000
								CHANNELS 3 Zrotation Yrotation Xrotation
								JOINT LeftFingerBase
								{
									OFFSET 0.000000 0.000000 0.000000
									CHANNELS 3 Zrotation Yrotation Xrotation
									JOINT LeftHandIndex1
									{
										OFFSET 0.715260 -0.000000 -0.000000
										CHANNELS 3 Zrotation Yrotation Xrotation
										End Site
										{
											OFFSET 0.000000 0.000000 0.000000
										}
									}
								}
								JOINT LThumb
								{
									OFFSET 0.000000 0.000000 0.000000
									CHANNELS 3 Zrotation Yrotation Xrotation
									End Site
									{
										OFFSET 0.000000 0.000000 0.000000
									}
								}
							}
						}
					}
				}
				JOINT RightShoulder
				{
					OFFSET 0.000000 0.000000 0.000000
					CHANNELS 3 Zrotation Yrotation Xrotation
					JOINT RightArm
					{
						OFFSET -3.136600 1.374050 -0.404650
						CHANNELS 3 Zrotation Yrotation Xrotation
						JOINT RightForeArm
						{
							OFFSET -5.241900 -0.000000 -0.000000
							CHANNELS 3 Zrotation Yrotation Xrotation
							JOINT RightHand
							{
								OFFSET -3.444170 -0.000000 -0.000000
								CHANNELS 3 Zrotation Yrotation Xrotation
								JOINT RightFingerBase
								{
									OFFSET 0.000000 0.000000 0.000000
									CHANNELS 3 Zrotation Yrotation Xrotation
									JOINT RightHandIndex1
									{
										OFFSET -0.622530 -0.000000 -0.000000
										CHANNELS 3 Zrotation Yrotation Xrotation
										End Site
										{
											OFFSET 0.000000 0.000000 0.000000
										}
									}
								}
								JOINT RThumb
								{
									OFFSET 0.000000 0.000000 0.000000
									CHANNELS 3 Zrotation Yrotation Xrotation
									End Site
									{
										OFFSET 0.000000 0.000000 0.000000
									}
								}
							}
						}
					}
				}
			}
		}
	}
}
}
MOTION
Frames: 9
Frame Time: 0.008333
15.796634 16.898563 1.691910 83.662533 -87.858495 -36.953815 2.471445 -2.162420 -5.245220 -0.144513 -2.534732 -3.897425 -5.792214 -2.680481 1.626284 9.516405 -12.329962 -11.269078 -2.272280 -0.119779 -1.245686 0.000000 0.000000 0.000000 -1.965178 8.654916 2.492153 -65.565490 25.806421 21.591252 -2.533106 -38.619670 0.005357 -1.315450 -3.797176 0.041681 -0.070236 -0.002326 -0.000000 0.000000 0.000000 0.000000 0.000000 0.000000 0.000000 12.931611 -10.522271 2.884827 70.521270 -15.458869 -1.159119 2.943306 25.780444 0.008159 -4.499836 5.636592 -0.232736 0.152883 -0.099632 0.000000 0.000000 0.000000 0.000000 0.000000 0.000000 0.000000 
15.775617 16.839094 1.692487 87.008594 -87.707155 -39.287451 2.340297 -2.156417 -5.394358 -0.182748 -2.526602 -3.941136 -5.800338 -2.675769 1.617200 9.659368 -12.421154 -11.458751 -2.288660 -0.117817 -1.316123 0.000000 0.000000 0.000000 -2.046129 8.893840 2.543590 -65.706455 26.011007 21.224404 -2.496580 -38.898213 0.005488 -1.180497 -3.862377 0.037884 -0.069591 0.001778 -0.000000 0.000000 0.000000 0.000000 0.000000 0.000000 0.000000 13.277262 -10.571290 2.929133 70.409276 -15.811638 -1.308837 2.904011 26.146120 0.008053 -4.395681 5.706031 -0.230339 0.151038 -0.103380 0.000000 0.000000 0.000000 0.000000 0.000000 0.000000 0.000000 
15.755032 16.770685 1.692837 90.184323 -87.545877 -41.435364 2.200654 -2.149149 -5.549931 -0.225731 -2.517344 -3.988413 -5.815205 -2.670297 1.602931 9.817340 -12.495433 -11.653786 -2.315162 -0.116644 -1.389220 0.000000 0.000000 0.000000 -2.152447 9.113772 2.598505 -65.858899 26.130248 20.785630 -2.457967 -39.115438 0.005588 -1.003417 -3.919790 0.032384 -0.069017 0.005972 -0.000000 0.000000 0.000000 0.000000 0.000000 0.000000 0.000000 13.677123 -10.601465 2.976277 70.282354 -16.078754 -1.508195 2.860854 26.466500 0.007821 -4.326792 5.755535 -0.228838 0.149218 -0.107363 0.000000 0.000000 0.000000 0.000000 0.000000 0.000000 0.000000 
15.734896 16.692449 1.692960 93.043518 -87.375965 -43.251061 2.055057 -2.143281 -5.717320 -0.271079 -2.509809 -4.036347 -5.830875 -2.666668 1.598056 9.991357 -12.592572 -11.866930 -2.344607 -0.115437 -1.468518 0.000000 0.000000 0.000000 -2.266238 9.366838 2.655211 -66.023565 26.102216 20.334502 -2.417926 -39.232894 0.005686 -0.773848 -3.982665 0.024987 -0.068755 0.010406 -0.000000 0.000000 0.000000 0.000000 0.000000 0.000000 0.000000 14.112352 -10.656533 3.022180 70.125348 -16.211041 -1.660881 2.813968 26.717251 0.007470 -4.324199 5.790151 -0.230142 0.147793 -0.111345 0.000000 0.000000 0.000000 0.000000 0.000000 0.000000 0.000000 
15.715126 16.603671 1.692936 95.432329 -87.201628 -44.580553 1.912098 -2.139620 -5.904541 -0.317630 -2.505887 -4.090630 -5.851818 -2.667115 1.587394 10.175031 -12.667662 -12.077316 -2.381659 -0.114975 -1.547616 0.000000 0.000000 0.000000 -2.407452 9.588869 2.712920 -66.199048 26.030805 19.792960 -2.376449 -39.311303 0.005743 -0.515405 -4.045973 0.016289 -0.068518 0.014909 -0.000000 0.000000 0.000000 0.000000 0.000000 0.000000 0.000000 14.580443 -10.691294 3.070030 69.960996 -16.273652 -1.866152 2.764834 26.922885 0.007021 -4.352608 5.812433 -0.232545 0.146464 -0.115464 0.000000 0.000000 0.000000 0.000000 0.000000 0.000000 0.000000 
15.695398 16.503446 1.692828 97.264228 -87.024447 -45.333831 1.775665 -2.140610 -6.120367 -0.363197 -2.508501 -4.151654 -5.874645 -2.674519 1.576419 10.364166 -12.730609 -12.285674 -2.422547 -0.114929 -1.626425 0.000000 0.000000 0.000000 -2.568613 9.795655 2.770631 -66.385766 25.907008 19.180069 -2.334403 -39.345747 0.005768 -0.235332 -4.117740 0.006391 -0.068350 0.019554 -0.000000 0.000000 0.000000 0.000000 0.000000 0.000000 0.000000 15.062762 -10.718571 3.117933 69.790804 -16.256992 -2.097035 2.714224 27.072206 0.006495 -4.417100 5.828485 -0.236648 0.145346 -0.119618 0.000000 0.000000 0.000000 0.000000 0.000000 0.000000 0.000000 
15.675769 16.391097 1.692705 98.488040 -86.845766 -45.459618 1.649863 -2.148344 -6.372668 -0.405664 -2.520208 -4.220273 -5.896622 -2.691419 1.568356 10.552982 -12.783956 -12.490146 -2.464379 -0.115086 -1.704037 0.000000 0.000000 0.000000 -2.744311 9.994919 2.827675 -66.584049 25.731891 18.506885 -2.292909 -39.337554 0.005765 0.054269 -4.204024 -0.004107 -0.068254 0.024382 -0.000000 0.000000 0.000000 0.000000 0.000000 0.000000 0.000000 15.540540 -10.743115 3.164536 69.621629 -16.161417 -2.346551 2.663172 27.157792 0.005914 -4.514738 5.844972 -0.242552 0.144478 -0.123742 0.000000 0.000000 0.000000 0.000000 0.000000 0.000000 0.000000 
15.656123 16.265903 1.692657 99.100989 -86.666057 -44.954109 1.538122 -2.164164 -6.667581 -0.443375 -2.542759 -4.297696 -5.916005 -2.719587 1.563784 10.734755 -12.823477 -12.686352 -2.505481 -0.115373 -1.778851 0.000000 0.000000 0.000000 -2.933136 10.184632 2.883684 -66.791770 25.518540 17.775930 -2.252967 -39.295871 0.005737 0.338149 -4.306823 -0.015004 -0.068178 0.029396 -0.000000 0.000000 0.000000 0.000000 0.000000 0.000000 0.000000 15.997666 -10.762153 3.209308 69.463523 -15.997585 -2.626302 2.612580 27.177982 0.005307 -4.634677 5.865917 -0.249856 0.143808 -0.127813 0.000000 0.000000 0.000000 0.000000 0.000000 0.000000 0.000000 
15.636237 16.127507 1.692729 99.139202 -86.484614 -43.858866 1.442870 -2.188277 -7.007553 -0.475716 -2.576698 -4.386260 -5.933966 -2.759693 1.556184 10.902217 -12.828646 -12.863675 -2.547369 -0.116109 -1.847419 0.000000 0.000000 0.000000 -3.143307 10.334685 2.938550 -67.005781 25.316436 16.959339 -2.215046 -39.253239 0.005673 0.595498 -4.421049 -0.025403 -0.067933 0.034482 -0.000000 0.000000 0.000000 0.000000 0.000000 0.000000 0.000000 16.425551 -10.754933 3.253730 69.331924 -15.800772 -2.985593 2.563371 27.145268 0.004698 -4.751937 5.892368 -0.257262 0.143116 -0.131877 0.000000 0.000000 0.000000 0.000000 0.000000 0.000000 0.000000 
